<svg id="Layer_1" xmlns="http://www.w3.org/2000/svg" width="100.5" height="100.5"><style>.st0{fill:#fff}</style><path class="st0" d="M85.5 14.9C76 5.5 63.5.3 50.3.3 38.4.3 26.9 4.5 17.9 12.2 7.8 20.7 1.7 32.7.3 46.8v6.6c0 3.8 1.5 9.2 2.3 12.2v.1C6.4 76.9 13.4 86 22.9 92.1c8.1 5.2 17.8 8.1 27.4 8.1 13.2 0 25.7-5.2 35.2-14.7 9.5-9.5 14.8-22 14.8-35.2-.1-13.4-5.3-25.9-14.8-35.4zM50.3 95.2c-14.9 0-35.1-8.1-42.8-31-.7-2.5-2.1-7.7-2.1-10.8v-6.2C8.2 19.7 30.1 5.3 50.3 5.3c24.8 0 44.9 20.2 44.9 44.9 0 24.4-20.6 45-44.9 45z"/><path class="st0" d="M68.6 42.1c-.6-.3-2.6-1.3-4.7-2.5C48.7 31.4 43 28.8 40.8 28.8c-4.2 0-6.7 1.9-8.5 6.2l-.2.5v28.6c0 2.3 1.3 4.3 3.6 5.8 1.6 1 3.6 1.6 5.1 1.6 1.7 0 5.4-1.1 27.5-14.2.7-.4 1.2-.7 1.5-.9l.2-.1c2.6-1.8 3.3-5.2 3.3-6.7-.1-2.5-1.7-6-4.7-7.5zm-1.5 10.2c-.3.2-.8.5-1.4.8-2.7 1.6-8.4 5-13.7 7.9-8.7 4.8-10.8 5.5-11.3 5.5-1-.1-3.5-1.2-3.5-2.4V36.6c1.1-2.5 2-2.6 3.5-2.6 2.5.4 15.8 7.5 20.8 10.2 2.7 1.4 4.2 2.2 4.8 2.5 1 .5 1.8 2.1 1.8 3.1.1.4-.3 1.9-1 2.5z"/></svg>