<svg id="Layer_1" xmlns="http://www.w3.org/2000/svg" width="101.4" height="101.3"><style>.st0{fill:red}</style><path class="st0" d="M50.9 22.1c-7.5 0-14.5 2.9-19.9 8-.6.5-.9 1.3-.9 2.1s.3 1.5.8 2.1c.5.6 1.3.9 2.1.9s1.5-.3 2.1-.8c4.2-4.1 9.8-6.4 15.8-6.4 5.9 0 11.5 2.3 15.8 6.4.6.5 1.3.8 2.1.8s1.6-.3 2.1-.9c.5-.6.8-1.3.8-2.1s-.3-1.5-.9-2.1c-5.4-5.2-12.4-8-19.9-8zM28.2 50.7c0-1.9.2-3.8.7-5.6.4-1.6-.6-3.2-2.1-3.6-1.6-.4-3.2.6-3.6 2.1-.6 2.3-.9 4.7-.9 7.1 0 2.4.3 4.8.9 7.1.3 1.3 1.5 2.2 2.9 2.2.2 0 .5 0 .7-.1 1.6-.4 2.5-2 2.1-3.6-.5-1.8-.7-3.7-.7-5.6z"/><path class="st0" d="M50.9 11.4c-21.7 0-39.3 17.6-39.3 39.3S29.2 90 50.9 90c21.7 0 39.3-17.6 39.3-39.3S72.5 11.4 50.9 11.4zm0 72.6c-18.4 0-33.4-15-33.4-33.4s15-33.4 33.4-33.4 33.4 15 33.4 33.4C84.2 69.1 69.3 84 50.9 84z"/><path class="st0" d="M98.2 16.6c3.6-3.6 3.6-9.6 0-13.2C96.4 1.6 94.1.7 91.6.7s-4.9 1-6.6 2.7l-6 6C70.7 3.7 61 .8 50.9.8 23.4.8.9 23.2.9 50.8c0 27.5 22.4 50 50 50 27.5 0 50-22.4 50-50 0-10.1-3-19.8-8.6-28.1l5.9-6.1zM50.9 94.7c-24.3 0-44.1-19.7-44.1-44S26.6 6.6 50.9 6.6c9.7 0 18.9 3.1 26.6 8.9 1.2.9 2.8.8 3.9-.3l7.8-7.8c.6-.6 1.5-1 2.4-1 .9 0 1.8.4 2.4 1 1.3 1.3 1.3 3.5 0 4.9l-7.8 7.8c-1 1-1.2 2.7-.3 3.9 5.9 7.7 8.9 16.9 8.9 26.6.1 24.4-19.6 44.1-43.9 44.1z"/></svg>