<svg id="Layer_1" xmlns="http://www.w3.org/2000/svg" width="100.5" height="101.3"><style>.st0{fill:red}</style><path class="st0" d="M70.9 44.7c-2.9 0-5.3 2.4-5.3 5.3s2.4 5.3 5.3 5.3 5.3-2.4 5.3-5.3-2.4-5.3-5.3-5.3zm-20.8 0c-2.9 0-5.3 2.4-5.3 5.3s2.4 5.3 5.3 5.3 5.3-2.4 5.3-5.3-2.4-5.3-5.3-5.3zm-20.8 0c-2.9 0-5.3 2.4-5.3 5.3s2.4 5.3 5.3 5.3 5.3-2.4 5.3-5.3-2.4-5.3-5.3-5.3z"/><path class="st0" d="M93.1 74.4c4.2-7.4 6.4-15.8 6.4-24.3C99.5 22.9 77.3.7 50.1.7 39.6.7 29.5 4 21 10.3c-1.2.9-3 2.3-4.8 4l-.5.6C6 24.1.7 36.7.7 50S6 76 15.6 85.3c.3.4 2.2 2.3 4.7 4.1l.6.4c8.5 6.3 18.6 9.6 29.2 9.6 8.2 0 16.3-2 23.4-5.9l26.6 7.1-7-26.2zm-2.4 16.8l-18.1-4.8-1.2.6c-6.5 3.7-13.8 5.7-21.3 5.7C26.5 92.8 7.4 73.6 7.4 50S26.6 7.3 50.1 7.3c23.6 0 42.7 19.2 42.7 42.7 0 7.8-2.1 15.5-6.2 22.1l-.7 1.2 4.8 17.9z"/></svg>