<svg id="Layer_1" xmlns="http://www.w3.org/2000/svg" width="101.4" height="101.3"><style>.st0{fill:red}</style><path class="st0" d="M95.7 33l-.6-.6v-1c-.7-5.4-3.7-10.8-8.9-16.1C80.8 10 75.4 7 70 6.3h-.9c-.2-.3-.4-.5-.7-.7-4.3-3.3-10.2-5-17.7-5S37.2 2.3 33 5.6l-.6.6h-1c-5.3.8-10.7 3.8-16 9-5.3 5.3-8.4 10.7-9 16.1v.9c-.3.2-.5.4-.7.7-3.3 4.3-5 10.2-5 17.7s1.7 13.5 5 17.7l.6.6v1c.7 5.4 3.7 10.8 9 16 5.3 5.3 10.7 8.4 16.1 9h.9c.2.3.4.5.7.7 4.3 3.3 10.2 5 17.7 5s13.5-1.7 17.7-5l.6-.6h1c5.4-.7 10.8-3.7 16.1-8.9 5.3-5.3 8.4-10.7 9-16.1v-.9c.3-.2.5-.4.7-.7 3.3-4.3 5-10.2 5-17.7-.1-7.5-1.8-13.5-5.1-17.7zM11.2 64.8l-2.4 1C6.1 62.3 4.6 57 4.6 50.5S6 38.9 8.8 35.3l2.4 1C9 40.1 7.9 44.7 7.9 50.5c0 5.8 1.1 10.6 3.3 14.3zM85 67c-.8 3.7-3 7.4-6.8 11.2C74.4 82 70.6 84.3 67 85L54.3 54.3 85 67zM54.3 47L67 16.4c3.7.8 7.4 3 11.2 6.8C82 27 84.3 30.7 85 34.3L54.3 47zm35.3 3.7c0 5.4-1 9.6-3.1 12.7L55.8 50.6 86.5 38c2.1 3.1 3.1 7.4 3.1 12.7zm1.5-18.9l-2.4 1c-1-4.2-3.6-8.3-7.7-12.4s-8.3-6.7-12.4-7.7l1-2.4c4.4.5 9.1 3.3 13.7 7.9 4.6 4.5 7.3 9.1 7.8 13.6zM50.6 89.5c-5.4 0-9.6-1-12.7-3.1l12.8-30.7 12.7 30.7c-3.2 2.1-7.4 3.1-12.8 3.1zm.2-77.8c5.4 0 9.6 1 12.7 3.1L50.7 45.5 38.1 14.8c3.1-2 7.4-3.1 12.7-3.1zM66 8.8l-1 2.4C61.3 9 56.6 7.9 50.8 7.9 45 7.9 40.2 9 36.5 11.2l-1-2.4C39 6 44.3 4.5 50.8 4.5S62.4 5.9 66 8.8c0-.1 0-.1 0 0zM47.1 54.2L34.3 84.9c-3.7-.8-7.4-3-11.2-6.8-3.8-3.8-6.1-7.5-6.8-11.1l30.8-12.8zm-1.5-3.6L14.9 63.3c-2.1-3.1-3.1-7.4-3.1-12.7 0-5.4 1-9.6 3.1-12.7l30.7 12.7zM16.4 34.3c.8-3.7 3-7.4 6.8-11.2 3.8-3.8 7.5-6.1 11.1-6.8L47.1 47 16.4 34.3zm4.1-14c-4.1 4.1-6.7 8.3-7.7 12.4l-2.4-1c.5-4.4 3.3-9.1 7.9-13.7 4.6-4.6 9.2-7.2 13.7-7.8l1 2.4c-4.3 1.1-8.4 3.6-12.5 7.7zM10.3 69.4l2.4-1c1 4.2 3.6 8.3 7.7 12.4s8.3 6.7 12.4 7.7l-1 2.4c-4.4-.5-9.1-3.3-13.7-7.9-4.6-4.4-7.3-9.1-7.8-13.6 0 .1 0 0 0 0zm25.1 23.1l1-2.4c3.7 2.2 8.4 3.3 14.2 3.3 5.8 0 10.6-1.1 14.3-3.3l1 2.4c-3.5 2.7-8.8 4.1-15.3 4.1-6.5.1-11.6-1.3-15.2-4.1zM80.9 81c4.1-4.1 6.7-8.3 7.7-12.4l2.4 1c-.5 4.4-3.3 9.1-7.9 13.7-4.6 4.6-9.2 7.2-13.7 7.8l-1-2.4c4.4-1.1 8.4-3.6 12.5-7.7zm12.6-30.3c0-5.8-1.1-10.6-3.3-14.3l2.4-1c2.7 3.5 4.2 8.8 4.2 15.3s-1.4 11.6-4.2 15.2l-2.4-1c2.2-3.7 3.3-8.4 3.3-14.2z"/><path class="st0" d="M56.9 21.1c0-3.3-2.7-6.1-6.1-6.1-3.3 0-6.1 2.7-6.1 6.1s2.7 6.1 6.1 6.1c3.4 0 6.1-2.8 6.1-6.1zm-6-2.2c1.2 0 2.1 1 2.1 2.1 0 1.2-1 2.1-2.1 2.1-1.2 0-2.1-1-2.1-2.1-.1-1.1.9-2.1 2.1-2.1zm16.5 6.7c-2.4 2.4-2.4 6.2 0 8.6 1.1 1.1 2.7 1.8 4.3 1.8 1.6 0 3.1-.6 4.3-1.8 2.4-2.4 2.4-6.2 0-8.6-2.4-2.4-6.2-2.4-8.6 0zm4.3 6.4c-.6 0-1.1-.2-1.5-.6-.4-.4-.6-.9-.6-1.5s.2-1.1.6-1.5c.4-.4.9-.6 1.5-.6s1.1.2 1.5.6c.8.8.8 2.2 0 3-.4.4-.9.6-1.5.6zm8.5 12.7c-3.3 0-6.1 2.7-6.1 6.1 0 3.3 2.7 6.1 6.1 6.1s6.1-2.7 6.1-6.1c0-3.4-2.7-6.1-6.1-6.1zm0 8.2c-1.2 0-2.1-1-2.1-2.1 0-1.2 1-2.1 2.1-2.1 1.2 0 2.1 1 2.1 2.1.1 1.2-.9 2.1-2.1 2.1zm-8.7 24.8c1.6 0 3.1-.6 4.3-1.8 2.4-2.4 2.4-6.2 0-8.6-1.1-1.1-2.7-1.8-4.3-1.8-1.6 0-3.1.6-4.3 1.8-2.4 2.4-2.4 6.2 0 8.6 1.1 1.2 2.6 1.8 4.3 1.8zM70 70.1c.4-.4 1-.6 1.5-.6.6 0 1.1.2 1.5.6.4.4.6.9.6 1.5s-.2 1.1-.6 1.5c-.8.8-2.2.8-3 0-.9-.8-.9-2.2 0-3zM44.5 80.2c0 1.6.6 3.1 1.8 4.3 1.1 1.1 2.7 1.8 4.3 1.8 3.3 0 6.1-2.7 6.1-6.1 0-3.3-2.7-6.1-6.1-6.1-3.4 0-6.1 2.7-6.1 6.1zm6 2.1c-1.2 0-2.1-1-2.1-2.1 0-1.2 1-2.1 2.1-2.1s2.1 1 2.1 2.1c.1 1.1-.9 2.1-2.1 2.1zm-20.8-4.8c1.6 0 3.1-.6 4.3-1.8 2.4-2.4 2.4-6.2 0-8.6-2.4-2.4-6.2-2.4-8.6 0-2.4 2.4-2.4 6.2 0 8.6 1.2 1.1 2.7 1.8 4.3 1.8zm-2.1-6.1c0-.6.2-1.1.6-1.5.4-.4.9-.6 1.5-.6s1.1.2 1.5.6c.8.8.8 2.2 0 3-.8.8-2.2.8-3 0-.4-.4-.6-.9-.6-1.5zm-6.4-14.9c3.3 0 6.1-2.7 6.1-6.1s-2.7-6.1-6.1-6.1-6.1 2.7-6.1 6.1 2.7 6.1 6.1 6.1zm-2.2-6c0-1.2 1-2.1 2.1-2.1 1.2 0 2.1 1 2.1 2.1s-1 2.1-2.1 2.1-2.1-1-2.1-2.1zm6.7-25.2c-2.4 2.4-2.4 6.2 0 8.6 1.1 1.1 2.7 1.8 4.3 1.8s3.1-.6 4.3-1.8c2.4-2.4 2.4-6.2 0-8.6-2.4-2.3-6.3-2.3-8.6 0zm2.7 2.8c.4-.4.9-.6 1.5-.6s1.1.2 1.5.6c.8.8.8 2.2 0 3-.8.8-2.2.8-3 0-.8-.8-.8-2.2 0-3z"/></svg>