<svg id="Layer_1" xmlns="http://www.w3.org/2000/svg" width="100.5" height="100.5"><style>.st0{fill:red}</style><path class="st0" d="M71.5 47.3H57.4c-.8-1.9-2.3-3.5-4.2-4.2V20.3c0-1.6-1.3-2.9-2.9-2.9s-2.9 1.3-2.9 2.9V43c-2.8 1.2-4.8 3.9-4.8 7.2 0 4.3 3.5 7.8 7.8 7.8 3.2 0 6-2 7.2-4.8h14.1c1.6 0 2.9-1.3 2.9-2.9s-1.5-3-3.1-3zm-21.3 1.1c.1 0 .1 0 0 0 1.1 0 1.9.9 1.9 1.9 0 1-.8 1.9-1.9 1.9s-1.9-.8-1.9-1.9c.1-1.1.9-1.9 1.9-1.9z"/><path class="st0" d="M85.7 85.5c9-9 14.6-21.5 14.6-35.2 0-13.7-5.6-26.2-14.6-35.2 0 0 0-.1-.1-.1 0 0-.1 0-.1-.1C76.5 5.9 64 .3 50.3.3 36.5.3 24 5.8 15 14.8c0 0-.1 0-.1.1-.1.1-.1.2-.2.2C5.8 24.1.3 36.5.3 50.2c0 13.7 5.5 26.1 14.5 35.1.1.1.1.2.2.2l.2.2c9 8.9 21.5 14.5 35.1 14.5 13.7 0 26.1-5.5 35.1-14.5.1-.1.2-.1.2-.2 0 .1 0 0 .1 0zm-5.2-9.1c-1.1-1.1-3-1.1-4.2 0-1.1 1.1-1.1 3 0 4.2l2.9 2.9c-7.1 6.2-16.1 10.2-26.1 10.8v-4.1c0-1.6-1.3-2.9-2.9-2.9s-2.9 1.3-2.9 2.9v4.1c-10-.7-19-4.6-26.1-10.8l2.9-2.9c.6-.6.9-1.3.9-2.1s-.3-1.5-.9-2.1c-1.1-1.1-3-1.1-4.2 0L17 79.3C10.9 72.2 6.9 63.1 6.2 53.2h4.1c1.6 0 2.9-1.3 2.9-2.9s-1.3-2.9-2.9-2.9H6.2c.7-10 4.6-19 10.8-26.1l2.9 2.9c.6.6 1.3.9 2.1.9s1.5-.3 2.1-.9c.6-.6.9-1.3.9-2.1s-.3-1.5-.9-2.1l-2.9-2.9c7.1-6.2 16.1-10.2 26.1-10.8v4.1c0 1.6 1.3 2.9 2.9 2.9s2.9-1.3 2.9-2.9V6.2c10 .7 19 4.6 26.1 10.8l-2.8 3c-1.1 1.1-1.1 3 0 4.2.6.6 1.3.9 2.1.9s1.5-.3 2.1-.9l2.9-2.9c6.2 7.1 10.2 16.1 10.8 26.1h-4.1c-1.6 0-2.9 1.3-2.9 2.9s1.3 2.9 2.9 2.9h4.1c-.7 10-4.6 19-10.8 26.1l-3-2.9z"/></svg>